<?xml version="1.0" standalone="no"?>
<!DOCTYPE svg PUBLIC "-//W3C//DTD SVG 20010904//EN" "http://www.w3.org/TR/2001/REC-SVG-20010904/DTD/svg10.dtd">
<svg version="1.0" xmlns="http://www.w3.org/2000/svg"
    width="165.000000pt" height="165.000000pt" viewBox="0 0 165.000000 165.000000"
    preserveAspectRatio="xMidYMid meet">

    <g transform="translate(0.000000,165.000000) scale(0.100000,-0.100000)"
        fill="#6355d8" stroke="none">
        <path
            d="M727 1640 c-333 -40 -612 -286 -698 -615 -29 -111 -29 -289 0 -400
75 -286 288 -504 576 -591 130 -39 310 -39 440 0 288 87 502 306 576 591 29
112 29 289 0 400 -105 400 -488 663 -894 615z m197 -514 c20 -15 41 -37 47
-49 47 -87 13 -204 -75 -258 -148 -90 -316 142 -201 279 57 68 160 81 229 28z
m78 -391 c50 -35 100 -123 96 -169 -3 -26 -10 -32 -58 -50 -47 -17 -80 -20
-215 -20 -135 0 -168 3 -215 20 -46 17 -56 25 -58 47 -5 41 40 130 81 161 52
40 79 46 209 43 111 -2 118 -3 160 -32z" />
        <path
            d="M744 1066 c-41 -41 -45 -85 -13 -147 42 -84 140 -86 186 -4 34 60 31
109 -11 151 -29 29 -41 34 -81 34 -40 0 -52 -5 -81 -34z" />
        <path
            d="M682 690 c-34 -21 -72 -74 -72 -101 0 -26 74 -39 215 -39 141 0 215
13 215 39 0 27 -38 80 -72 101 -28 17 -51 20 -143 20 -92 0 -115 -3 -143 -20z" />
    </g>
</svg>