<?xml version="1.0" encoding="UTF-8"?>
<svg id="Warstwa_2" data-name="Warstwa 2" xmlns="http://www.w3.org/2000/svg" viewBox="0 0 616.68 409.89">
  <defs>
    <style>
      .cls-1 {
        fill: #6355d8;
      }
    </style>
  </defs>
  <g id="Warstwa_1-2" data-name="Warstwa 1">
    <path class="cls-1" d="M192.34,.54c-43.2,2.6-85.7,19.6-119,47.5C16.34,95.74-10.76,172.64,3.94,245.24c8.6,42.6,33.2,85.5,64.9,113.1,25.8,22.4,57.8,39.2,88.5,46.3,20.7,4.9,50.7,6.6,70.5,4.1,26.4-3.2,53.6-11.9,74.2-23.5,5.4-3.1,6.6-3.4,8.3-2.3,6.9,4.3,25,12.4,36.5,16.3,43.4,14.6,92.4,14.1,135.5-1.5,25.9-9.4,58.9-30.7,76.6-49.5,36.1-38.4,55.6-84.8,57.6-136.4,1.7-45.9-12.7-92-40.1-128.7C543.64,39.24,496.14,10.64,441.84,2.24c-12.7-2-41.2-2.2-55.3-.5-21.7,2.7-48.4,11-67.2,21l-11,5.8-12.5-6.3c-15.3-7.7-35.5-14.7-51.6-17.9C233.04,2.04,208.74-.36,200.84,.04c-1.9,.1-5.7,.3-8.5,.5Zm33,17.3c19.1,2.2,36.4,6.8,55.8,15,4.2,1.7,8.6,3.9,9.8,4.9,2,1.6,1.9,1.7-4.8,6.6-9.8,7.2-28.8,26.4-37,37.5-21.2,28.7-35,63.4-39.3,99.5-1.6,12.8-1.4,38,.5,51.6,6.7,50.6,34,99.1,73.8,131.1l8.8,7.1-4.3,2.5c-12.8,7.3-36,14.6-56.8,17.8-14.5,2.3-42.3,2.3-55.5,0-44.3-7.6-77.1-24.8-107.7-56.4-24.5-25.4-40.9-56.5-48.6-92.1-2.5-11.7-2.7-14.3-2.7-37.1,0-25.6,.4-29.1,5.2-48.5,6.6-26.5,22-55.6,40.8-76.6,30.9-34.7,72.8-57,118-62.8,9.9-1.2,33.4-1.3,44-.1Zm206.5,.1c81.3,8.3,148.1,68.6,164.5,148.6,6.1,29.4,5.2,58.9-2.5,88.1-19,71.1-80.1,125.8-152.6,136.7-26.1,3.8-50.5,2.7-75.7-3.7-16.7-4.2-43.1-14.9-41.1-16.7,.5-.4,3.6-2.8,6.9-5.3,21.2-16.1,41.8-41.3,54.9-67.6,10-19.9,15.3-36,19.2-58.2,3.5-19.9,3.6-47,.4-67-6-36.8-19.6-67.6-43-97-8-10-22.7-24.5-32.4-31.8l-6.9-5.2,10.4-4.9c16.4-7.7,38.3-13.9,56.5-16,10.3-1.2,29.9-1.2,41.4,0Zm-96.8,51.7c13.6,13.1,25.2,28.1,33.1,42.5,4.9,9,10,19.7,9.4,19.7-.1,0-17.7-17.5-39-38.8l-38.9-38.9,4.3-3.1,4.2-3.1,7.5,5.2c4.2,2.9,12.9,10.3,19.4,16.5Zm55.4,110.8c1.5,12,1.9,29.8,.6,29.2-.4-.2-28.6-28.2-62.5-62.4l-61.7-62.1,9.2-9.7,9.1-9.8,52,52,51.9,51.9,1.4,10.9Zm-67.2-12.7l66.9,66.9-2.1,9.3c-1.1,5.2-2.8,12-3.7,15.3l-1.7,5.9-70.3-70.3-70.4-70.4,2.1-4c2.8-5.7,11.2-19.6,11.8-19.6,.3,0,30.6,30.1,67.4,66.9Zm-17.4,46.4l69.4,69.8-3.1,6.2c-1.7,3.4-4.8,9-7,12.5l-4,6.2-67.2-68-67.3-68,1.6-7.3c2.8-12.4,5.9-21.8,7-21.5,.7,.2,32.4,31.7,70.6,70.1Zm-18.1,46.3c34.2,34.5,62.1,63,62.1,63.5s-3.9,4.9-8.7,9.9l-8.8,9.1-52.8-52.8-52.8-52.9-.9-6.4c-1.6-11.2-2.4-33-1.2-33,.5,0,28.9,28.2,63.1,62.6Zm27.6,96.8q-6.5,5.3-14.7-.7c-16.3-12-33.9-30.6-45.3-47.8-6.1-9.3-17.5-30.9-17.5-33.4,0-.5,18.1,17.1,40.3,39.3l40.2,40.2-3,2.4Z"/>
  </g>
</svg>